%TF.GenerationSoftware,KiCad,Pcbnew,9.0.6*%
%TF.CreationDate,2025-12-25T21:37:21-05:00*%
%TF.ProjectId,hpad,68706164-2e6b-4696-9361-645f70636258,rev?*%
%TF.SameCoordinates,Original*%
%TF.FileFunction,Legend,Top*%
%TF.FilePolarity,Positive*%
%FSLAX46Y46*%
G04 Gerber Fmt 4.6, Leading zero omitted, Abs format (unit mm)*
G04 Created by KiCad (PCBNEW 9.0.6) date 2025-12-25 21:37:21*
%MOMM*%
%LPD*%
G01*
G04 APERTURE LIST*
%ADD10C,0.101600*%
%ADD11C,0.150000*%
%ADD12C,0.127000*%
%ADD13C,0.100000*%
%ADD14C,0.504000*%
%ADD15C,0.120000*%
G04 APERTURE END LIST*
D10*
X159296190Y-78573479D02*
X159296190Y-79087526D01*
X159296190Y-79087526D02*
X159326428Y-79148002D01*
X159326428Y-79148002D02*
X159356666Y-79178241D01*
X159356666Y-79178241D02*
X159417142Y-79208479D01*
X159417142Y-79208479D02*
X159538095Y-79208479D01*
X159538095Y-79208479D02*
X159598571Y-79178241D01*
X159598571Y-79178241D02*
X159628809Y-79148002D01*
X159628809Y-79148002D02*
X159659047Y-79087526D01*
X159659047Y-79087526D02*
X159659047Y-78573479D01*
X160294047Y-79208479D02*
X159931190Y-79208479D01*
X160112618Y-79208479D02*
X160112618Y-78573479D01*
X160112618Y-78573479D02*
X160052142Y-78664193D01*
X160052142Y-78664193D02*
X159991666Y-78724669D01*
X159991666Y-78724669D02*
X159931190Y-78754907D01*
D11*
X157257917Y-104610700D02*
X157400774Y-104658319D01*
X157400774Y-104658319D02*
X157638869Y-104658319D01*
X157638869Y-104658319D02*
X157734107Y-104610700D01*
X157734107Y-104610700D02*
X157781726Y-104563080D01*
X157781726Y-104563080D02*
X157829345Y-104467842D01*
X157829345Y-104467842D02*
X157829345Y-104372604D01*
X157829345Y-104372604D02*
X157781726Y-104277366D01*
X157781726Y-104277366D02*
X157734107Y-104229747D01*
X157734107Y-104229747D02*
X157638869Y-104182128D01*
X157638869Y-104182128D02*
X157448393Y-104134509D01*
X157448393Y-104134509D02*
X157353155Y-104086890D01*
X157353155Y-104086890D02*
X157305536Y-104039271D01*
X157305536Y-104039271D02*
X157257917Y-103944033D01*
X157257917Y-103944033D02*
X157257917Y-103848795D01*
X157257917Y-103848795D02*
X157305536Y-103753557D01*
X157305536Y-103753557D02*
X157353155Y-103705938D01*
X157353155Y-103705938D02*
X157448393Y-103658319D01*
X157448393Y-103658319D02*
X157686488Y-103658319D01*
X157686488Y-103658319D02*
X157829345Y-103705938D01*
X158162679Y-103658319D02*
X158400774Y-104658319D01*
X158400774Y-104658319D02*
X158591250Y-103944033D01*
X158591250Y-103944033D02*
X158781726Y-104658319D01*
X158781726Y-104658319D02*
X159019822Y-103658319D01*
X159924583Y-104658319D02*
X159353155Y-104658319D01*
X159638869Y-104658319D02*
X159638869Y-103658319D01*
X159638869Y-103658319D02*
X159543631Y-103801176D01*
X159543631Y-103801176D02*
X159448393Y-103896414D01*
X159448393Y-103896414D02*
X159353155Y-103944033D01*
X153211905Y-87729819D02*
X153211905Y-86729819D01*
X153211905Y-86729819D02*
X153450000Y-86729819D01*
X153450000Y-86729819D02*
X153592857Y-86777438D01*
X153592857Y-86777438D02*
X153688095Y-86872676D01*
X153688095Y-86872676D02*
X153735714Y-86967914D01*
X153735714Y-86967914D02*
X153783333Y-87158390D01*
X153783333Y-87158390D02*
X153783333Y-87301247D01*
X153783333Y-87301247D02*
X153735714Y-87491723D01*
X153735714Y-87491723D02*
X153688095Y-87586961D01*
X153688095Y-87586961D02*
X153592857Y-87682200D01*
X153592857Y-87682200D02*
X153450000Y-87729819D01*
X153450000Y-87729819D02*
X153211905Y-87729819D01*
X154735714Y-87729819D02*
X154164286Y-87729819D01*
X154450000Y-87729819D02*
X154450000Y-86729819D01*
X154450000Y-86729819D02*
X154354762Y-86872676D01*
X154354762Y-86872676D02*
X154259524Y-86967914D01*
X154259524Y-86967914D02*
X154164286Y-87015533D01*
X150978571Y-89512295D02*
X150521428Y-89512295D01*
X150750000Y-89512295D02*
X150750000Y-88712295D01*
X150750000Y-88712295D02*
X150673809Y-88826580D01*
X150673809Y-88826580D02*
X150597619Y-88902771D01*
X150597619Y-88902771D02*
X150521428Y-88940866D01*
X157257917Y-123660700D02*
X157400774Y-123708319D01*
X157400774Y-123708319D02*
X157638869Y-123708319D01*
X157638869Y-123708319D02*
X157734107Y-123660700D01*
X157734107Y-123660700D02*
X157781726Y-123613080D01*
X157781726Y-123613080D02*
X157829345Y-123517842D01*
X157829345Y-123517842D02*
X157829345Y-123422604D01*
X157829345Y-123422604D02*
X157781726Y-123327366D01*
X157781726Y-123327366D02*
X157734107Y-123279747D01*
X157734107Y-123279747D02*
X157638869Y-123232128D01*
X157638869Y-123232128D02*
X157448393Y-123184509D01*
X157448393Y-123184509D02*
X157353155Y-123136890D01*
X157353155Y-123136890D02*
X157305536Y-123089271D01*
X157305536Y-123089271D02*
X157257917Y-122994033D01*
X157257917Y-122994033D02*
X157257917Y-122898795D01*
X157257917Y-122898795D02*
X157305536Y-122803557D01*
X157305536Y-122803557D02*
X157353155Y-122755938D01*
X157353155Y-122755938D02*
X157448393Y-122708319D01*
X157448393Y-122708319D02*
X157686488Y-122708319D01*
X157686488Y-122708319D02*
X157829345Y-122755938D01*
X158162679Y-122708319D02*
X158400774Y-123708319D01*
X158400774Y-123708319D02*
X158591250Y-122994033D01*
X158591250Y-122994033D02*
X158781726Y-123708319D01*
X158781726Y-123708319D02*
X159019822Y-122708319D01*
X159305536Y-122708319D02*
X159924583Y-122708319D01*
X159924583Y-122708319D02*
X159591250Y-123089271D01*
X159591250Y-123089271D02*
X159734107Y-123089271D01*
X159734107Y-123089271D02*
X159829345Y-123136890D01*
X159829345Y-123136890D02*
X159876964Y-123184509D01*
X159876964Y-123184509D02*
X159924583Y-123279747D01*
X159924583Y-123279747D02*
X159924583Y-123517842D01*
X159924583Y-123517842D02*
X159876964Y-123613080D01*
X159876964Y-123613080D02*
X159829345Y-123660700D01*
X159829345Y-123660700D02*
X159734107Y-123708319D01*
X159734107Y-123708319D02*
X159448393Y-123708319D01*
X159448393Y-123708319D02*
X159353155Y-123660700D01*
X159353155Y-123660700D02*
X159305536Y-123613080D01*
X182161905Y-88229819D02*
X182161905Y-87229819D01*
X182161905Y-87229819D02*
X182400000Y-87229819D01*
X182400000Y-87229819D02*
X182542857Y-87277438D01*
X182542857Y-87277438D02*
X182638095Y-87372676D01*
X182638095Y-87372676D02*
X182685714Y-87467914D01*
X182685714Y-87467914D02*
X182733333Y-87658390D01*
X182733333Y-87658390D02*
X182733333Y-87801247D01*
X182733333Y-87801247D02*
X182685714Y-87991723D01*
X182685714Y-87991723D02*
X182638095Y-88086961D01*
X182638095Y-88086961D02*
X182542857Y-88182200D01*
X182542857Y-88182200D02*
X182400000Y-88229819D01*
X182400000Y-88229819D02*
X182161905Y-88229819D01*
X183114286Y-87325057D02*
X183161905Y-87277438D01*
X183161905Y-87277438D02*
X183257143Y-87229819D01*
X183257143Y-87229819D02*
X183495238Y-87229819D01*
X183495238Y-87229819D02*
X183590476Y-87277438D01*
X183590476Y-87277438D02*
X183638095Y-87325057D01*
X183638095Y-87325057D02*
X183685714Y-87420295D01*
X183685714Y-87420295D02*
X183685714Y-87515533D01*
X183685714Y-87515533D02*
X183638095Y-87658390D01*
X183638095Y-87658390D02*
X183066667Y-88229819D01*
X183066667Y-88229819D02*
X183685714Y-88229819D01*
X179928571Y-90012295D02*
X179471428Y-90012295D01*
X179700000Y-90012295D02*
X179700000Y-89212295D01*
X179700000Y-89212295D02*
X179623809Y-89326580D01*
X179623809Y-89326580D02*
X179547619Y-89402771D01*
X179547619Y-89402771D02*
X179471428Y-89440866D01*
X176307917Y-123660700D02*
X176450774Y-123708319D01*
X176450774Y-123708319D02*
X176688869Y-123708319D01*
X176688869Y-123708319D02*
X176784107Y-123660700D01*
X176784107Y-123660700D02*
X176831726Y-123613080D01*
X176831726Y-123613080D02*
X176879345Y-123517842D01*
X176879345Y-123517842D02*
X176879345Y-123422604D01*
X176879345Y-123422604D02*
X176831726Y-123327366D01*
X176831726Y-123327366D02*
X176784107Y-123279747D01*
X176784107Y-123279747D02*
X176688869Y-123232128D01*
X176688869Y-123232128D02*
X176498393Y-123184509D01*
X176498393Y-123184509D02*
X176403155Y-123136890D01*
X176403155Y-123136890D02*
X176355536Y-123089271D01*
X176355536Y-123089271D02*
X176307917Y-122994033D01*
X176307917Y-122994033D02*
X176307917Y-122898795D01*
X176307917Y-122898795D02*
X176355536Y-122803557D01*
X176355536Y-122803557D02*
X176403155Y-122755938D01*
X176403155Y-122755938D02*
X176498393Y-122708319D01*
X176498393Y-122708319D02*
X176736488Y-122708319D01*
X176736488Y-122708319D02*
X176879345Y-122755938D01*
X177212679Y-122708319D02*
X177450774Y-123708319D01*
X177450774Y-123708319D02*
X177641250Y-122994033D01*
X177641250Y-122994033D02*
X177831726Y-123708319D01*
X177831726Y-123708319D02*
X178069822Y-122708319D01*
X178879345Y-123041652D02*
X178879345Y-123708319D01*
X178641250Y-122660700D02*
X178403155Y-123374985D01*
X178403155Y-123374985D02*
X179022202Y-123374985D01*
X176307917Y-104610700D02*
X176450774Y-104658319D01*
X176450774Y-104658319D02*
X176688869Y-104658319D01*
X176688869Y-104658319D02*
X176784107Y-104610700D01*
X176784107Y-104610700D02*
X176831726Y-104563080D01*
X176831726Y-104563080D02*
X176879345Y-104467842D01*
X176879345Y-104467842D02*
X176879345Y-104372604D01*
X176879345Y-104372604D02*
X176831726Y-104277366D01*
X176831726Y-104277366D02*
X176784107Y-104229747D01*
X176784107Y-104229747D02*
X176688869Y-104182128D01*
X176688869Y-104182128D02*
X176498393Y-104134509D01*
X176498393Y-104134509D02*
X176403155Y-104086890D01*
X176403155Y-104086890D02*
X176355536Y-104039271D01*
X176355536Y-104039271D02*
X176307917Y-103944033D01*
X176307917Y-103944033D02*
X176307917Y-103848795D01*
X176307917Y-103848795D02*
X176355536Y-103753557D01*
X176355536Y-103753557D02*
X176403155Y-103705938D01*
X176403155Y-103705938D02*
X176498393Y-103658319D01*
X176498393Y-103658319D02*
X176736488Y-103658319D01*
X176736488Y-103658319D02*
X176879345Y-103705938D01*
X177212679Y-103658319D02*
X177450774Y-104658319D01*
X177450774Y-104658319D02*
X177641250Y-103944033D01*
X177641250Y-103944033D02*
X177831726Y-104658319D01*
X177831726Y-104658319D02*
X178069822Y-103658319D01*
X178403155Y-103753557D02*
X178450774Y-103705938D01*
X178450774Y-103705938D02*
X178546012Y-103658319D01*
X178546012Y-103658319D02*
X178784107Y-103658319D01*
X178784107Y-103658319D02*
X178879345Y-103705938D01*
X178879345Y-103705938D02*
X178926964Y-103753557D01*
X178926964Y-103753557D02*
X178974583Y-103848795D01*
X178974583Y-103848795D02*
X178974583Y-103944033D01*
X178974583Y-103944033D02*
X178926964Y-104086890D01*
X178926964Y-104086890D02*
X178355536Y-104658319D01*
X178355536Y-104658319D02*
X178974583Y-104658319D01*
D12*
%TO.C,U1*%
X159390000Y-99429000D02*
X159390000Y-82284000D01*
X161295000Y-101334000D02*
X175265000Y-101334000D01*
X163785000Y-80379000D02*
X163788728Y-79468728D01*
X164288728Y-78969000D02*
X172284000Y-78969000D01*
X172784000Y-79469000D02*
X172784000Y-80379000D01*
D13*
X175265000Y-80379000D02*
X161295000Y-80379000D01*
D12*
X175265000Y-80379000D02*
X161295000Y-80379000D01*
X177170000Y-99429000D02*
X177170000Y-82284000D01*
X159390000Y-82284000D02*
G75*
G02*
X161295000Y-80379000I1905001J-1D01*
G01*
X161295000Y-101334000D02*
G75*
G02*
X159390000Y-99429000I1J1905001D01*
G01*
X163788728Y-79468728D02*
G75*
G02*
X164288728Y-78969001I500018J-291D01*
G01*
X172284000Y-78969000D02*
G75*
G02*
X172784000Y-79469000I0J-500000D01*
G01*
X175265000Y-80379000D02*
G75*
G02*
X177170000Y-82284000I0J-1905000D01*
G01*
X177170000Y-99429000D02*
G75*
G02*
X175265000Y-101334000I-1905000J0D01*
G01*
D14*
X159582000Y-80620000D02*
G75*
G02*
X159078000Y-80620000I-252000J0D01*
G01*
X159078000Y-80620000D02*
G75*
G02*
X159582000Y-80620000I252000J0D01*
G01*
X160725000Y-81500000D02*
G75*
G02*
X160221000Y-81500000I-252000J0D01*
G01*
X160221000Y-81500000D02*
G75*
G02*
X160725000Y-81500000I252000J0D01*
G01*
D15*
%TO.C,SW1*%
X151606250Y-105092500D02*
X165576250Y-105092500D01*
X151606250Y-119062500D02*
X151606250Y-105092500D01*
X165576250Y-105092500D02*
X165576250Y-119062500D01*
X165576250Y-119062500D02*
X151606250Y-119062500D01*
%TO.C,D1*%
X151150000Y-88025000D02*
X151150000Y-92025000D01*
X151150000Y-88025000D02*
X156750000Y-88025000D01*
X151150000Y-92025000D02*
X156150000Y-92025000D01*
X156750000Y-91425000D02*
X156150000Y-92025000D01*
X156750000Y-91425000D02*
X156750000Y-88025000D01*
%TO.C,SW3*%
X151606250Y-124142500D02*
X165576250Y-124142500D01*
X151606250Y-138112500D02*
X151606250Y-124142500D01*
X165576250Y-124142500D02*
X165576250Y-138112500D01*
X165576250Y-138112500D02*
X151606250Y-138112500D01*
%TO.C,D2*%
X180100000Y-88525000D02*
X180100000Y-92525000D01*
X180100000Y-88525000D02*
X185700000Y-88525000D01*
X180100000Y-92525000D02*
X185100000Y-92525000D01*
X185700000Y-91925000D02*
X185100000Y-92525000D01*
X185700000Y-91925000D02*
X185700000Y-88525000D01*
%TO.C,SW4*%
X170656250Y-124142500D02*
X184626250Y-124142500D01*
X170656250Y-138112500D02*
X170656250Y-124142500D01*
X184626250Y-124142500D02*
X184626250Y-138112500D01*
X184626250Y-138112500D02*
X170656250Y-138112500D01*
%TO.C,SW2*%
X170656250Y-105092500D02*
X184626250Y-105092500D01*
X170656250Y-119062500D02*
X170656250Y-105092500D01*
X184626250Y-105092500D02*
X184626250Y-119062500D01*
X184626250Y-119062500D02*
X170656250Y-119062500D01*
%TD*%
M02*
