%TF.GenerationSoftware,KiCad,Pcbnew,9.0.6*%
%TF.CreationDate,2025-12-25T21:37:21-05:00*%
%TF.ProjectId,hpad,68706164-2e6b-4696-9361-645f70636258,rev?*%
%TF.SameCoordinates,Original*%
%TF.FileFunction,Copper,L2,Bot*%
%TF.FilePolarity,Positive*%
%FSLAX46Y46*%
G04 Gerber Fmt 4.6, Leading zero omitted, Abs format (unit mm)*
G04 Created by KiCad (PCBNEW 9.0.6) date 2025-12-25 21:37:21*
%MOMM*%
%LPD*%
G01*
G04 APERTURE LIST*
%ADD10C,0.300000*%
%TA.AperFunction,NonConductor*%
%ADD11C,0.300000*%
%TD*%
%TA.AperFunction,ComponentPad*%
%ADD12C,1.524000*%
%TD*%
%TA.AperFunction,ComponentPad*%
%ADD13C,2.200000*%
%TD*%
%TA.AperFunction,ViaPad*%
%ADD14C,0.600000*%
%TD*%
%TA.AperFunction,Conductor*%
%ADD15C,0.200000*%
%TD*%
G04 APERTURE END LIST*
D10*
D11*
X163611653Y-93700828D02*
X164397368Y-92700828D01*
X163611653Y-92700828D02*
X164397368Y-93700828D01*
X164968796Y-93700828D02*
X164968796Y-92700828D01*
X164968796Y-92200828D02*
X164897368Y-92272257D01*
X164897368Y-92272257D02*
X164968796Y-92343685D01*
X164968796Y-92343685D02*
X165040225Y-92272257D01*
X165040225Y-92272257D02*
X164968796Y-92200828D01*
X164968796Y-92200828D02*
X164968796Y-92343685D01*
X166325940Y-93700828D02*
X166325940Y-92915114D01*
X166325940Y-92915114D02*
X166254511Y-92772257D01*
X166254511Y-92772257D02*
X166111654Y-92700828D01*
X166111654Y-92700828D02*
X165825940Y-92700828D01*
X165825940Y-92700828D02*
X165683082Y-92772257D01*
X166325940Y-93629400D02*
X166183082Y-93700828D01*
X166183082Y-93700828D02*
X165825940Y-93700828D01*
X165825940Y-93700828D02*
X165683082Y-93629400D01*
X165683082Y-93629400D02*
X165611654Y-93486542D01*
X165611654Y-93486542D02*
X165611654Y-93343685D01*
X165611654Y-93343685D02*
X165683082Y-93200828D01*
X165683082Y-93200828D02*
X165825940Y-93129400D01*
X165825940Y-93129400D02*
X166183082Y-93129400D01*
X166183082Y-93129400D02*
X166325940Y-93057971D01*
X167254511Y-93700828D02*
X167111654Y-93629400D01*
X167111654Y-93629400D02*
X167040225Y-93557971D01*
X167040225Y-93557971D02*
X166968797Y-93415114D01*
X166968797Y-93415114D02*
X166968797Y-92986542D01*
X166968797Y-92986542D02*
X167040225Y-92843685D01*
X167040225Y-92843685D02*
X167111654Y-92772257D01*
X167111654Y-92772257D02*
X167254511Y-92700828D01*
X167254511Y-92700828D02*
X167468797Y-92700828D01*
X167468797Y-92700828D02*
X167611654Y-92772257D01*
X167611654Y-92772257D02*
X167683083Y-92843685D01*
X167683083Y-92843685D02*
X167754511Y-92986542D01*
X167754511Y-92986542D02*
X167754511Y-93415114D01*
X167754511Y-93415114D02*
X167683083Y-93557971D01*
X167683083Y-93557971D02*
X167611654Y-93629400D01*
X167611654Y-93629400D02*
X167468797Y-93700828D01*
X167468797Y-93700828D02*
X167254511Y-93700828D01*
X169540225Y-93700828D02*
X169540225Y-92200828D01*
X170183083Y-93700828D02*
X170183083Y-92915114D01*
X170183083Y-92915114D02*
X170111654Y-92772257D01*
X170111654Y-92772257D02*
X169968797Y-92700828D01*
X169968797Y-92700828D02*
X169754511Y-92700828D01*
X169754511Y-92700828D02*
X169611654Y-92772257D01*
X169611654Y-92772257D02*
X169540225Y-92843685D01*
X171468797Y-93629400D02*
X171325940Y-93700828D01*
X171325940Y-93700828D02*
X171040226Y-93700828D01*
X171040226Y-93700828D02*
X170897368Y-93629400D01*
X170897368Y-93629400D02*
X170825940Y-93486542D01*
X170825940Y-93486542D02*
X170825940Y-92915114D01*
X170825940Y-92915114D02*
X170897368Y-92772257D01*
X170897368Y-92772257D02*
X171040226Y-92700828D01*
X171040226Y-92700828D02*
X171325940Y-92700828D01*
X171325940Y-92700828D02*
X171468797Y-92772257D01*
X171468797Y-92772257D02*
X171540226Y-92915114D01*
X171540226Y-92915114D02*
X171540226Y-93057971D01*
X171540226Y-93057971D02*
X170825940Y-93200828D01*
X172183082Y-93700828D02*
X172183082Y-92700828D01*
X172183082Y-92986542D02*
X172254511Y-92843685D01*
X172254511Y-92843685D02*
X172325940Y-92772257D01*
X172325940Y-92772257D02*
X172468797Y-92700828D01*
X172468797Y-92700828D02*
X172611654Y-92700828D01*
X173683082Y-93629400D02*
X173540225Y-93700828D01*
X173540225Y-93700828D02*
X173254511Y-93700828D01*
X173254511Y-93700828D02*
X173111653Y-93629400D01*
X173111653Y-93629400D02*
X173040225Y-93486542D01*
X173040225Y-93486542D02*
X173040225Y-92915114D01*
X173040225Y-92915114D02*
X173111653Y-92772257D01*
X173111653Y-92772257D02*
X173254511Y-92700828D01*
X173254511Y-92700828D02*
X173540225Y-92700828D01*
X173540225Y-92700828D02*
X173683082Y-92772257D01*
X173683082Y-92772257D02*
X173754511Y-92915114D01*
X173754511Y-92915114D02*
X173754511Y-93057971D01*
X173754511Y-93057971D02*
X173040225Y-93200828D01*
D10*
D11*
X146940225Y-82200828D02*
X147511653Y-82200828D01*
X147154510Y-83200828D02*
X147154510Y-81915114D01*
X147154510Y-81915114D02*
X147225939Y-81772257D01*
X147225939Y-81772257D02*
X147368796Y-81700828D01*
X147368796Y-81700828D02*
X147511653Y-81700828D01*
X148011653Y-83200828D02*
X148011653Y-82200828D01*
X148011653Y-81700828D02*
X147940225Y-81772257D01*
X147940225Y-81772257D02*
X148011653Y-81843685D01*
X148011653Y-81843685D02*
X148083082Y-81772257D01*
X148083082Y-81772257D02*
X148011653Y-81700828D01*
X148011653Y-81700828D02*
X148011653Y-81843685D01*
X148725939Y-83200828D02*
X148725939Y-82200828D01*
X148725939Y-82486542D02*
X148797368Y-82343685D01*
X148797368Y-82343685D02*
X148868797Y-82272257D01*
X148868797Y-82272257D02*
X149011654Y-82200828D01*
X149011654Y-82200828D02*
X149154511Y-82200828D01*
X149583082Y-83129400D02*
X149725939Y-83200828D01*
X149725939Y-83200828D02*
X150011653Y-83200828D01*
X150011653Y-83200828D02*
X150154510Y-83129400D01*
X150154510Y-83129400D02*
X150225939Y-82986542D01*
X150225939Y-82986542D02*
X150225939Y-82915114D01*
X150225939Y-82915114D02*
X150154510Y-82772257D01*
X150154510Y-82772257D02*
X150011653Y-82700828D01*
X150011653Y-82700828D02*
X149797368Y-82700828D01*
X149797368Y-82700828D02*
X149654510Y-82629400D01*
X149654510Y-82629400D02*
X149583082Y-82486542D01*
X149583082Y-82486542D02*
X149583082Y-82415114D01*
X149583082Y-82415114D02*
X149654510Y-82272257D01*
X149654510Y-82272257D02*
X149797368Y-82200828D01*
X149797368Y-82200828D02*
X150011653Y-82200828D01*
X150011653Y-82200828D02*
X150154510Y-82272257D01*
X150654511Y-82200828D02*
X151225939Y-82200828D01*
X150868796Y-81700828D02*
X150868796Y-82986542D01*
X150868796Y-82986542D02*
X150940225Y-83129400D01*
X150940225Y-83129400D02*
X151083082Y-83200828D01*
X151083082Y-83200828D02*
X151225939Y-83200828D01*
D12*
%TO.P,U1,1,GPIO26/ADC0/A0*%
%TO.N,unconnected-(U1-GPIO26{slash}ADC0{slash}A0-Pad1)*%
X160660000Y-83300000D03*
%TO.P,U1,2,GPIO27/ADC1/A1*%
%TO.N,unconnected-(U1-GPIO27{slash}ADC1{slash}A1-Pad2)*%
X160660000Y-85840000D03*
%TO.P,U1,3,GPIO28/ADC2/A2*%
%TO.N,unconnected-(U1-GPIO28{slash}ADC2{slash}A2-Pad3)*%
X160660000Y-88380000D03*
%TO.P,U1,4,GPIO29/ADC3/A3*%
%TO.N,unconnected-(U1-GPIO29{slash}ADC3{slash}A3-Pad4)*%
X160660000Y-90920000D03*
%TO.P,U1,5,GPIO6/SDA*%
%TO.N,Net-(D1-DIN)*%
X160660000Y-93460000D03*
%TO.P,U1,6,GPIO7/SCL*%
%TO.N,unconnected-(U1-GPIO7{slash}SCL-Pad6)*%
X160660000Y-96000000D03*
%TO.P,U1,7,GPIO0/TX*%
%TO.N,unconnected-(U1-GPIO0{slash}TX-Pad7)*%
X160660000Y-98540000D03*
%TO.P,U1,8,GPIO1/RX*%
%TO.N,Net-(U1-GPIO1{slash}RX)*%
X175900000Y-98540000D03*
%TO.P,U1,9,GPIO2/SCK*%
%TO.N,Net-(U1-GPIO2{slash}SCK)*%
X175900000Y-96000000D03*
%TO.P,U1,10,GPIO4/MISO*%
%TO.N,Net-(U1-GPIO4{slash}MISO)*%
X175900000Y-93460000D03*
%TO.P,U1,11,GPIO3/MOSI*%
%TO.N,Net-(U1-GPIO3{slash}MOSI)*%
X175900000Y-90920000D03*
%TO.P,U1,12,3V3*%
%TO.N,unconnected-(U1-3V3-Pad12)*%
X175900000Y-88380000D03*
%TO.P,U1,13,GND*%
%TO.N,GND*%
X175900000Y-85840000D03*
%TO.P,U1,14,VBUS*%
%TO.N,+5V*%
X175900000Y-83300000D03*
%TD*%
D13*
%TO.P,SW1,1,1*%
%TO.N,GND*%
X161131250Y-106997500D03*
%TO.P,SW1,2,2*%
%TO.N,Net-(U1-GPIO1{slash}RX)*%
X154781250Y-109537500D03*
%TD*%
%TO.P,SW3,1,1*%
%TO.N,GND*%
X161131250Y-126047500D03*
%TO.P,SW3,2,2*%
%TO.N,Net-(U1-GPIO4{slash}MISO)*%
X154781250Y-128587500D03*
%TD*%
%TO.P,SW4,1,1*%
%TO.N,GND*%
X180181250Y-126047500D03*
%TO.P,SW4,2,2*%
%TO.N,Net-(U1-GPIO3{slash}MOSI)*%
X173831250Y-128587500D03*
%TD*%
%TO.P,SW2,1,1*%
%TO.N,GND*%
X180181250Y-106997500D03*
%TO.P,SW2,2,2*%
%TO.N,Net-(U1-GPIO2{slash}SCK)*%
X173831250Y-109537500D03*
%TD*%
D14*
%TO.N,GND*%
X182900000Y-91400000D03*
X153900000Y-90900000D03*
%TD*%
D15*
%TO.N,Net-(U1-GPIO1{slash}RX)*%
X154781250Y-109537500D02*
X165778750Y-98540000D01*
X165778750Y-98540000D02*
X175900000Y-98540000D01*
%TD*%
%TA.AperFunction,Conductor*%
%TO.N,GND*%
G36*
X189942539Y-80442435D02*
G01*
X189988294Y-80495239D01*
X189999500Y-80546750D01*
X189999500Y-142250500D01*
X189979815Y-142317539D01*
X189927011Y-142363294D01*
X189875500Y-142374500D01*
X145880750Y-142374500D01*
X145813711Y-142354815D01*
X145767956Y-142302011D01*
X145756750Y-142250500D01*
X145756750Y-131040889D01*
X152410750Y-131040889D01*
X152410750Y-131214111D01*
X152437848Y-131385201D01*
X152491377Y-131549945D01*
X152570018Y-131704288D01*
X152671836Y-131844428D01*
X152794322Y-131966914D01*
X152934462Y-132068732D01*
X153088805Y-132147373D01*
X153253549Y-132200902D01*
X153424639Y-132228000D01*
X153424640Y-132228000D01*
X153597860Y-132228000D01*
X153597861Y-132228000D01*
X153768951Y-132200902D01*
X153933695Y-132147373D01*
X154088038Y-132068732D01*
X154228178Y-131966914D01*
X154350664Y-131844428D01*
X154452482Y-131704288D01*
X154531123Y-131549945D01*
X154584652Y-131385201D01*
X154611750Y-131214111D01*
X154611750Y-131040889D01*
X154602104Y-130979986D01*
X156340750Y-130979986D01*
X156340750Y-131275013D01*
X156372821Y-131518613D01*
X156379257Y-131567493D01*
X156453462Y-131844430D01*
X156455611Y-131852451D01*
X156455614Y-131852461D01*
X156568504Y-132125000D01*
X156568508Y-132125010D01*
X156716011Y-132380493D01*
X156895602Y-132614540D01*
X156895608Y-132614547D01*
X157104202Y-132823141D01*
X157104209Y-132823147D01*
X157338256Y-133002738D01*
X157593739Y-133150241D01*
X157593740Y-133150241D01*
X157593743Y-133150243D01*
X157866298Y-133263139D01*
X158151257Y-133339493D01*
X158443744Y-133378000D01*
X158443751Y-133378000D01*
X158738749Y-133378000D01*
X158738756Y-133378000D01*
X159031243Y-133339493D01*
X159316202Y-133263139D01*
X159588757Y-133150243D01*
X159844244Y-133002738D01*
X160078292Y-132823146D01*
X160286896Y-132614542D01*
X160466488Y-132380494D01*
X160613993Y-132125007D01*
X160726889Y-131852452D01*
X160803243Y-131567493D01*
X160841750Y-131275006D01*
X160841750Y-131040889D01*
X162570750Y-131040889D01*
X162570750Y-131214111D01*
X162597848Y-131385201D01*
X162651377Y-131549945D01*
X162730018Y-131704288D01*
X162831836Y-131844428D01*
X162954322Y-131966914D01*
X163094462Y-132068732D01*
X163248805Y-132147373D01*
X163413549Y-132200902D01*
X163584639Y-132228000D01*
X163584640Y-132228000D01*
X163757860Y-132228000D01*
X163757861Y-132228000D01*
X163928951Y-132200902D01*
X164093695Y-132147373D01*
X164248038Y-132068732D01*
X164388178Y-131966914D01*
X164510664Y-131844428D01*
X164612482Y-131704288D01*
X164691123Y-131549945D01*
X164744652Y-131385201D01*
X164771750Y-131214111D01*
X164771750Y-131040889D01*
X171460750Y-131040889D01*
X171460750Y-131214111D01*
X171487848Y-131385201D01*
X171541377Y-131549945D01*
X171620018Y-131704288D01*
X171721836Y-131844428D01*
X171844322Y-131966914D01*
X171984462Y-132068732D01*
X172138805Y-132147373D01*
X172303549Y-132200902D01*
X172474639Y-132228000D01*
X172474640Y-132228000D01*
X172647860Y-132228000D01*
X172647861Y-132228000D01*
X172818951Y-132200902D01*
X172983695Y-132147373D01*
X173138038Y-132068732D01*
X173278178Y-131966914D01*
X173400664Y-131844428D01*
X173502482Y-131704288D01*
X173581123Y-131549945D01*
X173634652Y-131385201D01*
X173661750Y-131214111D01*
X173661750Y-131040889D01*
X173652104Y-130979986D01*
X175390750Y-130979986D01*
X175390750Y-131275013D01*
X175422821Y-131518613D01*
X175429257Y-131567493D01*
X175503462Y-131844430D01*
X175505611Y-131852451D01*
X175505614Y-131852461D01*
X175618504Y-132125000D01*
X175618508Y-132125010D01*
X175766011Y-132380493D01*
X175945602Y-132614540D01*
X175945608Y-132614547D01*
X176154202Y-132823141D01*
X176154209Y-132823147D01*
X176388256Y-133002738D01*
X176643739Y-133150241D01*
X176643740Y-133150241D01*
X176643743Y-133150243D01*
X176916298Y-133263139D01*
X177201257Y-133339493D01*
X177493744Y-133378000D01*
X177493751Y-133378000D01*
X177788749Y-133378000D01*
X177788756Y-133378000D01*
X178081243Y-133339493D01*
X178366202Y-133263139D01*
X178638757Y-133150243D01*
X178894244Y-133002738D01*
X179128292Y-132823146D01*
X179336896Y-132614542D01*
X179516488Y-132380494D01*
X179663993Y-132125007D01*
X179776889Y-131852452D01*
X179853243Y-131567493D01*
X179891750Y-131275006D01*
X179891750Y-131040889D01*
X181620750Y-131040889D01*
X181620750Y-131214111D01*
X181647848Y-131385201D01*
X181701377Y-131549945D01*
X181780018Y-131704288D01*
X181881836Y-131844428D01*
X182004322Y-131966914D01*
X182144462Y-132068732D01*
X182298805Y-132147373D01*
X182463549Y-132200902D01*
X182634639Y-132228000D01*
X182634640Y-132228000D01*
X182807860Y-132228000D01*
X182807861Y-132228000D01*
X182978951Y-132200902D01*
X183143695Y-132147373D01*
X183298038Y-132068732D01*
X183438178Y-131966914D01*
X183560664Y-131844428D01*
X183662482Y-131704288D01*
X183741123Y-131549945D01*
X183794652Y-131385201D01*
X183821750Y-131214111D01*
X183821750Y-131040889D01*
X183794652Y-130869799D01*
X183741123Y-130705055D01*
X183662482Y-130550712D01*
X183560664Y-130410572D01*
X183438178Y-130288086D01*
X183298038Y-130186268D01*
X183143695Y-130107627D01*
X182978951Y-130054098D01*
X182978949Y-130054097D01*
X182978948Y-130054097D01*
X182847521Y-130033281D01*
X182807861Y-130027000D01*
X182634639Y-130027000D01*
X182594978Y-130033281D01*
X182463552Y-130054097D01*
X182298802Y-130107628D01*
X182144461Y-130186268D01*
X182087539Y-130227625D01*
X182004322Y-130288086D01*
X182004320Y-130288088D01*
X182004319Y-130288088D01*
X181881838Y-130410569D01*
X181881838Y-130410570D01*
X181881836Y-130410572D01*
X181838109Y-130470756D01*
X181780018Y-130550711D01*
X181701378Y-130705052D01*
X181647847Y-130869802D01*
X181620750Y-131040889D01*
X179891750Y-131040889D01*
X179891750Y-130979994D01*
X179853243Y-130687507D01*
X179776889Y-130402548D01*
X179663993Y-130129993D01*
X179608559Y-130033979D01*
X179516488Y-129874506D01*
X179336897Y-129640459D01*
X179336891Y-129640452D01*
X179128297Y-129431858D01*
X179128290Y-129431852D01*
X178894243Y-129252261D01*
X178638760Y-129104758D01*
X178638750Y-129104754D01*
X178366211Y-128991864D01*
X178366204Y-128991862D01*
X178366202Y-128991861D01*
X178081243Y-128915507D01*
X178032363Y-128909071D01*
X177788763Y-128877000D01*
X177788756Y-128877000D01*
X177493744Y-128877000D01*
X177493736Y-128877000D01*
X177215335Y-128913653D01*
X177201257Y-128915507D01*
X177026678Y-128962285D01*
X176916298Y-128991861D01*
X176916288Y-128991864D01*
X176643749Y-129104754D01*
X176643739Y-129104758D01*
X176388256Y-129252261D01*
X176154209Y-129431852D01*
X176154202Y-129431858D01*
X175945608Y-129640452D01*
X175945602Y-129640459D01*
X175766011Y-129874506D01*
X175618508Y-130129989D01*
X175618504Y-130129999D01*
X175505614Y-130402538D01*
X175505611Y-130402548D01*
X175429258Y-130687504D01*
X175429256Y-130687515D01*
X175390750Y-130979986D01*
X173652104Y-130979986D01*
X173634652Y-130869799D01*
X173581123Y-130705055D01*
X173502482Y-130550712D01*
X173400664Y-130410572D01*
X173348732Y-130358640D01*
X173315247Y-130297317D01*
X173320231Y-130227625D01*
X173362103Y-130171692D01*
X173427567Y-130147275D01*
X173455811Y-130148486D01*
X173456462Y-130148589D01*
X173456465Y-130148590D01*
X173705288Y-130188000D01*
X173705289Y-130188000D01*
X173957211Y-130188000D01*
X173957212Y-130188000D01*
X174206035Y-130148590D01*
X174445629Y-130070741D01*
X174670095Y-129956370D01*
X174873906Y-129808293D01*
X175052043Y-129630156D01*
X175200120Y-129426345D01*
X175314491Y-129201879D01*
X175392340Y-128962285D01*
X175431750Y-128713462D01*
X175431750Y-128461538D01*
X175392340Y-128212715D01*
X175314491Y-127973121D01*
X175314489Y-127973118D01*
X175314489Y-127973116D01*
X175272997Y-127891684D01*
X175200120Y-127748655D01*
X175098003Y-127608102D01*
X175052048Y-127544850D01*
X175052044Y-127544845D01*
X174873904Y-127366705D01*
X174873899Y-127366701D01*
X174670098Y-127218632D01*
X174670097Y-127218631D01*
X174670095Y-127218630D01*
X174599997Y-127182913D01*
X174445633Y-127104260D01*
X174206035Y-127026410D01*
X173957212Y-126987000D01*
X173705288Y-126987000D01*
X173580876Y-127006705D01*
X173456464Y-127026410D01*
X173216866Y-127104260D01*
X172992401Y-127218632D01*
X172788600Y-127366701D01*
X172788595Y-127366705D01*
X172610455Y-127544845D01*
X172610451Y-127544850D01*
X172462382Y-127748651D01*
X172348010Y-127973116D01*
X172270160Y-128212714D01*
X172230750Y-128461538D01*
X172230750Y-128713461D01*
X172270160Y-128962285D01*
X172348010Y-129201883D01*
X172462382Y-129426348D01*
X172610451Y-129630149D01*
X172610455Y-129630154D01*
X172610457Y-129630156D01*
X172788594Y-129808293D01*
X172788595Y-129808294D01*
X172788594Y-129808294D01*
X172794911Y-129812883D01*
X172837577Y-129868214D01*
X172843555Y-129937827D01*
X172810949Y-129999622D01*
X172750110Y-130033979D01*
X172702628Y-130035674D01*
X172647861Y-130027000D01*
X172474639Y-130027000D01*
X172434978Y-130033281D01*
X172303552Y-130054097D01*
X172138802Y-130107628D01*
X171984461Y-130186268D01*
X171927539Y-130227625D01*
X171844322Y-130288086D01*
X171844320Y-130288088D01*
X171844319Y-130288088D01*
X171721838Y-130410569D01*
X171721838Y-130410570D01*
X171721836Y-130410572D01*
X171678109Y-130470756D01*
X171620018Y-130550711D01*
X171541378Y-130705052D01*
X171487847Y-130869802D01*
X171460750Y-131040889D01*
X164771750Y-131040889D01*
X164744652Y-130869799D01*
X164691123Y-130705055D01*
X164612482Y-130550712D01*
X164510664Y-130410572D01*
X164388178Y-130288086D01*
X164248038Y-130186268D01*
X164093695Y-130107627D01*
X163928951Y-130054098D01*
X163928949Y-130054097D01*
X163928948Y-130054097D01*
X163797521Y-130033281D01*
X163757861Y-130027000D01*
X163584639Y-130027000D01*
X163544978Y-130033281D01*
X163413552Y-130054097D01*
X163248802Y-130107628D01*
X163094461Y-130186268D01*
X163037539Y-130227625D01*
X162954322Y-130288086D01*
X162954320Y-130288088D01*
X162954319Y-130288088D01*
X162831838Y-130410569D01*
X162831838Y-130410570D01*
X162831836Y-130410572D01*
X162788109Y-130470756D01*
X162730018Y-130550711D01*
X162651378Y-130705052D01*
X162597847Y-130869802D01*
X162570750Y-131040889D01*
X160841750Y-131040889D01*
X160841750Y-130979994D01*
X160803243Y-130687507D01*
X160726889Y-130402548D01*
X160613993Y-130129993D01*
X160558559Y-130033979D01*
X160466488Y-129874506D01*
X160286897Y-129640459D01*
X160286891Y-129640452D01*
X160078297Y-129431858D01*
X160078290Y-129431852D01*
X159844243Y-129252261D01*
X159588760Y-129104758D01*
X159588750Y-129104754D01*
X159316211Y-128991864D01*
X159316204Y-128991862D01*
X159316202Y-128991861D01*
X159031243Y-128915507D01*
X158982363Y-128909071D01*
X158738763Y-128877000D01*
X158738756Y-128877000D01*
X158443744Y-128877000D01*
X158443736Y-128877000D01*
X158165335Y-128913653D01*
X158151257Y-128915507D01*
X157976678Y-128962285D01*
X157866298Y-128991861D01*
X157866288Y-128991864D01*
X157593749Y-129104754D01*
X157593739Y-129104758D01*
X157338256Y-129252261D01*
X157104209Y-129431852D01*
X157104202Y-129431858D01*
X156895608Y-129640452D01*
X156895602Y-129640459D01*
X156716011Y-129874506D01*
X156568508Y-130129989D01*
X156568504Y-130129999D01*
X156455614Y-130402538D01*
X156455611Y-130402548D01*
X156379258Y-130687504D01*
X156379256Y-130687515D01*
X156340750Y-130979986D01*
X154602104Y-130979986D01*
X154584652Y-130869799D01*
X154531123Y-130705055D01*
X154452482Y-130550712D01*
X154350664Y-130410572D01*
X154298732Y-130358640D01*
X154265247Y-130297317D01*
X154270231Y-130227625D01*
X154312103Y-130171692D01*
X154377567Y-130147275D01*
X154405811Y-130148486D01*
X154406462Y-130148589D01*
X154406465Y-130148590D01*
X154655288Y-130188000D01*
X154655289Y-130188000D01*
X154907211Y-130188000D01*
X154907212Y-130188000D01*
X155156035Y-130148590D01*
X155395629Y-130070741D01*
X155620095Y-129956370D01*
X155823906Y-129808293D01*
X156002043Y-129630156D01*
X156150120Y-129426345D01*
X156264491Y-129201879D01*
X156342340Y-128962285D01*
X156381750Y-128713462D01*
X156381750Y-128461538D01*
X156342340Y-128212715D01*
X156264491Y-127973121D01*
X156264489Y-127973118D01*
X156264489Y-127973116D01*
X156222997Y-127891684D01*
X156150120Y-127748655D01*
X156048003Y-127608102D01*
X156002048Y-127544850D01*
X156002044Y-127544845D01*
X155823904Y-127366705D01*
X155823899Y-127366701D01*
X155620098Y-127218632D01*
X155620097Y-127218631D01*
X155620095Y-127218630D01*
X155549997Y-127182913D01*
X155395633Y-127104260D01*
X155156035Y-127026410D01*
X154907212Y-126987000D01*
X154655288Y-126987000D01*
X154530876Y-127006705D01*
X154406464Y-127026410D01*
X154166866Y-127104260D01*
X153942401Y-127218632D01*
X153738600Y-127366701D01*
X153738595Y-127366705D01*
X153560455Y-127544845D01*
X153560451Y-127544850D01*
X153412382Y-127748651D01*
X153298010Y-127973116D01*
X153220160Y-128212714D01*
X153180750Y-128461538D01*
X153180750Y-128713461D01*
X153220160Y-128962285D01*
X153298010Y-129201883D01*
X153412382Y-129426348D01*
X153560451Y-129630149D01*
X153560455Y-129630154D01*
X153560457Y-129630156D01*
X153738594Y-129808293D01*
X153738595Y-129808294D01*
X153738594Y-129808294D01*
X153744911Y-129812883D01*
X153787577Y-129868214D01*
X153793555Y-129937827D01*
X153760949Y-129999622D01*
X153700110Y-130033979D01*
X153652628Y-130035674D01*
X153597861Y-130027000D01*
X153424639Y-130027000D01*
X153384978Y-130033281D01*
X153253552Y-130054097D01*
X153088802Y-130107628D01*
X152934461Y-130186268D01*
X152877539Y-130227625D01*
X152794322Y-130288086D01*
X152794320Y-130288088D01*
X152794319Y-130288088D01*
X152671838Y-130410569D01*
X152671838Y-130410570D01*
X152671836Y-130410572D01*
X152628109Y-130470756D01*
X152570018Y-130550711D01*
X152491378Y-130705052D01*
X152437847Y-130869802D01*
X152410750Y-131040889D01*
X145756750Y-131040889D01*
X145756750Y-125921571D01*
X159531250Y-125921571D01*
X159531250Y-126173428D01*
X159570647Y-126422169D01*
X159648469Y-126661684D01*
X159762807Y-126886083D01*
X159836998Y-126988197D01*
X159836998Y-126988198D01*
X160453671Y-126371524D01*
X160466609Y-126402758D01*
X160548687Y-126525597D01*
X160653153Y-126630063D01*
X160775992Y-126712141D01*
X160807224Y-126725077D01*
X160190550Y-127341750D01*
X160292666Y-127415942D01*
X160517065Y-127530280D01*
X160756580Y-127608102D01*
X161005322Y-127647500D01*
X161257178Y-127647500D01*
X161505919Y-127608102D01*
X161745434Y-127530280D01*
X161969825Y-127415946D01*
X161969831Y-127415942D01*
X162071947Y-127341750D01*
X162071948Y-127341750D01*
X161455275Y-126725078D01*
X161486508Y-126712141D01*
X161609347Y-126630063D01*
X161713813Y-126525597D01*
X161795891Y-126402758D01*
X161808828Y-126371525D01*
X162425500Y-126988198D01*
X162425500Y-126988197D01*
X162499692Y-126886081D01*
X162499696Y-126886075D01*
X162614030Y-126661684D01*
X162691852Y-126422169D01*
X162731250Y-126173428D01*
X162731250Y-125921571D01*
X178581250Y-125921571D01*
X178581250Y-126173428D01*
X178620647Y-126422169D01*
X178698469Y-126661684D01*
X178812807Y-126886083D01*
X178886998Y-126988197D01*
X178886998Y-126988198D01*
X179503671Y-126371524D01*
X179516609Y-126402758D01*
X179598687Y-126525597D01*
X179703153Y-126630063D01*
X179825992Y-126712141D01*
X179857224Y-126725077D01*
X179240550Y-127341750D01*
X179342666Y-127415942D01*
X179567065Y-127530280D01*
X179806580Y-127608102D01*
X180055322Y-127647500D01*
X180307178Y-127647500D01*
X180555919Y-127608102D01*
X180795434Y-127530280D01*
X181019825Y-127415946D01*
X181019831Y-127415942D01*
X181121947Y-127341750D01*
X181121948Y-127341750D01*
X180505275Y-126725078D01*
X180536508Y-126712141D01*
X180659347Y-126630063D01*
X180763813Y-126525597D01*
X180845891Y-126402758D01*
X180858828Y-126371525D01*
X181475500Y-126988198D01*
X181475500Y-126988197D01*
X181549692Y-126886081D01*
X181549696Y-126886075D01*
X181664030Y-126661684D01*
X181741852Y-126422169D01*
X181781250Y-126173428D01*
X181781250Y-125921571D01*
X181741852Y-125672830D01*
X181664030Y-125433315D01*
X181549692Y-125208916D01*
X181475500Y-125106801D01*
X181475500Y-125106800D01*
X180858827Y-125723473D01*
X180845891Y-125692242D01*
X180763813Y-125569403D01*
X180659347Y-125464937D01*
X180536508Y-125382859D01*
X180505274Y-125369921D01*
X181121948Y-124753248D01*
X181019833Y-124679057D01*
X180795434Y-124564719D01*
X180555919Y-124486897D01*
X180307178Y-124447500D01*
X180055322Y-124447500D01*
X179806580Y-124486897D01*
X179567065Y-124564719D01*
X179342663Y-124679059D01*
X179240551Y-124753247D01*
X179240550Y-124753248D01*
X179857224Y-125369921D01*
X179825992Y-125382859D01*
X179703153Y-125464937D01*
X179598687Y-125569403D01*
X179516609Y-125692242D01*
X179503671Y-125723474D01*
X178886998Y-125106800D01*
X178886997Y-125106801D01*
X178812809Y-125208913D01*
X178698469Y-125433315D01*
X178620647Y-125672830D01*
X178581250Y-125921571D01*
X162731250Y-125921571D01*
X162691852Y-125672830D01*
X162614030Y-125433315D01*
X162499692Y-125208916D01*
X162425500Y-125106801D01*
X162425500Y-125106800D01*
X161808827Y-125723473D01*
X161795891Y-125692242D01*
X161713813Y-125569403D01*
X161609347Y-125464937D01*
X161486508Y-125382859D01*
X161455274Y-125369921D01*
X162071948Y-124753248D01*
X161969833Y-124679057D01*
X161745434Y-124564719D01*
X161505919Y-124486897D01*
X161257178Y-124447500D01*
X161005322Y-124447500D01*
X160756580Y-124486897D01*
X160517065Y-124564719D01*
X160292663Y-124679059D01*
X160190551Y-124753247D01*
X160190550Y-124753248D01*
X160807224Y-125369921D01*
X160775992Y-125382859D01*
X160653153Y-125464937D01*
X160548687Y-125569403D01*
X160466609Y-125692242D01*
X160453671Y-125723474D01*
X159836998Y-125106800D01*
X159836997Y-125106801D01*
X159762809Y-125208913D01*
X159648469Y-125433315D01*
X159570647Y-125672830D01*
X159531250Y-125921571D01*
X145756750Y-125921571D01*
X145756750Y-111990889D01*
X152410750Y-111990889D01*
X152410750Y-112164111D01*
X152437848Y-112335201D01*
X152491377Y-112499945D01*
X152570018Y-112654288D01*
X152671836Y-112794428D01*
X152794322Y-112916914D01*
X152934462Y-113018732D01*
X153088805Y-113097373D01*
X153253549Y-113150902D01*
X153424639Y-113178000D01*
X153424640Y-113178000D01*
X153597860Y-113178000D01*
X153597861Y-113178000D01*
X153768951Y-113150902D01*
X153933695Y-113097373D01*
X154088038Y-113018732D01*
X154228178Y-112916914D01*
X154350664Y-112794428D01*
X154452482Y-112654288D01*
X154531123Y-112499945D01*
X154584652Y-112335201D01*
X154611750Y-112164111D01*
X154611750Y-111990889D01*
X154602104Y-111929986D01*
X156340750Y-111929986D01*
X156340750Y-112225013D01*
X156372821Y-112468613D01*
X156379257Y-112517493D01*
X156453462Y-112794430D01*
X156455611Y-112802451D01*
X156455614Y-112802461D01*
X156568504Y-113075000D01*
X156568508Y-113075010D01*
X156716011Y-113330493D01*
X156895602Y-113564540D01*
X156895608Y-113564547D01*
X157104202Y-113773141D01*
X157104209Y-113773147D01*
X157338256Y-113952738D01*
X157593739Y-114100241D01*
X157593740Y-114100241D01*
X157593743Y-114100243D01*
X157866298Y-114213139D01*
X158151257Y-114289493D01*
X158443744Y-114328000D01*
X158443751Y-114328000D01*
X158738749Y-114328000D01*
X158738756Y-114328000D01*
X159031243Y-114289493D01*
X159316202Y-114213139D01*
X159588757Y-114100243D01*
X159844244Y-113952738D01*
X160078292Y-113773146D01*
X160286896Y-113564542D01*
X160466488Y-113330494D01*
X160613993Y-113075007D01*
X160726889Y-112802452D01*
X160803243Y-112517493D01*
X160841750Y-112225006D01*
X160841750Y-111990889D01*
X162570750Y-111990889D01*
X162570750Y-112164111D01*
X162597848Y-112335201D01*
X162651377Y-112499945D01*
X162730018Y-112654288D01*
X162831836Y-112794428D01*
X162954322Y-112916914D01*
X163094462Y-113018732D01*
X163248805Y-113097373D01*
X163413549Y-113150902D01*
X163584639Y-113178000D01*
X163584640Y-113178000D01*
X163757860Y-113178000D01*
X163757861Y-113178000D01*
X163928951Y-113150902D01*
X164093695Y-113097373D01*
X164248038Y-113018732D01*
X164388178Y-112916914D01*
X164510664Y-112794428D01*
X164612482Y-112654288D01*
X164691123Y-112499945D01*
X164744652Y-112335201D01*
X164771750Y-112164111D01*
X164771750Y-111990889D01*
X171460750Y-111990889D01*
X171460750Y-112164111D01*
X171487848Y-112335201D01*
X171541377Y-112499945D01*
X171620018Y-112654288D01*
X171721836Y-112794428D01*
X171844322Y-112916914D01*
X171984462Y-113018732D01*
X172138805Y-113097373D01*
X172303549Y-113150902D01*
X172474639Y-113178000D01*
X172474640Y-113178000D01*
X172647860Y-113178000D01*
X172647861Y-113178000D01*
X172818951Y-113150902D01*
X172983695Y-113097373D01*
X173138038Y-113018732D01*
X173278178Y-112916914D01*
X173400664Y-112794428D01*
X173502482Y-112654288D01*
X173581123Y-112499945D01*
X173634652Y-112335201D01*
X173661750Y-112164111D01*
X173661750Y-111990889D01*
X173652104Y-111929986D01*
X175390750Y-111929986D01*
X175390750Y-112225013D01*
X175422821Y-112468613D01*
X175429257Y-112517493D01*
X175503462Y-112794430D01*
X175505611Y-112802451D01*
X175505614Y-112802461D01*
X175618504Y-113075000D01*
X175618508Y-113075010D01*
X175766011Y-113330493D01*
X175945602Y-113564540D01*
X175945608Y-113564547D01*
X176154202Y-113773141D01*
X176154209Y-113773147D01*
X176388256Y-113952738D01*
X176643739Y-114100241D01*
X176643740Y-114100241D01*
X176643743Y-114100243D01*
X176916298Y-114213139D01*
X177201257Y-114289493D01*
X177493744Y-114328000D01*
X177493751Y-114328000D01*
X177788749Y-114328000D01*
X177788756Y-114328000D01*
X178081243Y-114289493D01*
X178366202Y-114213139D01*
X178638757Y-114100243D01*
X178894244Y-113952738D01*
X179128292Y-113773146D01*
X179336896Y-113564542D01*
X179516488Y-113330494D01*
X179663993Y-113075007D01*
X179776889Y-112802452D01*
X179853243Y-112517493D01*
X179891750Y-112225006D01*
X179891750Y-111990889D01*
X181620750Y-111990889D01*
X181620750Y-112164111D01*
X181647848Y-112335201D01*
X181701377Y-112499945D01*
X181780018Y-112654288D01*
X181881836Y-112794428D01*
X182004322Y-112916914D01*
X182144462Y-113018732D01*
X182298805Y-113097373D01*
X182463549Y-113150902D01*
X182634639Y-113178000D01*
X182634640Y-113178000D01*
X182807860Y-113178000D01*
X182807861Y-113178000D01*
X182978951Y-113150902D01*
X183143695Y-113097373D01*
X183298038Y-113018732D01*
X183438178Y-112916914D01*
X183560664Y-112794428D01*
X183662482Y-112654288D01*
X183741123Y-112499945D01*
X183794652Y-112335201D01*
X183821750Y-112164111D01*
X183821750Y-111990889D01*
X183794652Y-111819799D01*
X183741123Y-111655055D01*
X183662482Y-111500712D01*
X183560664Y-111360572D01*
X183438178Y-111238086D01*
X183298038Y-111136268D01*
X183143695Y-111057627D01*
X182978951Y-111004098D01*
X182978949Y-111004097D01*
X182978948Y-111004097D01*
X182847521Y-110983281D01*
X182807861Y-110977000D01*
X182634639Y-110977000D01*
X182594978Y-110983281D01*
X182463552Y-111004097D01*
X182298802Y-111057628D01*
X182144461Y-111136268D01*
X182087539Y-111177625D01*
X182004322Y-111238086D01*
X182004320Y-111238088D01*
X182004319Y-111238088D01*
X181881838Y-111360569D01*
X181881838Y-111360570D01*
X181881836Y-111360572D01*
X181838109Y-111420756D01*
X181780018Y-111500711D01*
X181701378Y-111655052D01*
X181647847Y-111819802D01*
X181620750Y-111990889D01*
X179891750Y-111990889D01*
X179891750Y-111929994D01*
X179853243Y-111637507D01*
X179776889Y-111352548D01*
X179663993Y-111079993D01*
X179608559Y-110983979D01*
X179516488Y-110824506D01*
X179336897Y-110590459D01*
X179336891Y-110590452D01*
X179128297Y-110381858D01*
X179128290Y-110381852D01*
X178894243Y-110202261D01*
X178638760Y-110054758D01*
X178638750Y-110054754D01*
X178366211Y-109941864D01*
X178366204Y-109941862D01*
X178366202Y-109941861D01*
X178081243Y-109865507D01*
X178032363Y-109859071D01*
X177788763Y-109827000D01*
X177788756Y-109827000D01*
X177493744Y-109827000D01*
X177493736Y-109827000D01*
X177215335Y-109863653D01*
X177201257Y-109865507D01*
X177026678Y-109912285D01*
X176916298Y-109941861D01*
X176916288Y-109941864D01*
X176643749Y-110054754D01*
X176643739Y-110054758D01*
X176388256Y-110202261D01*
X176154209Y-110381852D01*
X176154202Y-110381858D01*
X175945608Y-110590452D01*
X175945602Y-110590459D01*
X175766011Y-110824506D01*
X175618508Y-111079989D01*
X175618504Y-111079999D01*
X175505614Y-111352538D01*
X175505611Y-111352548D01*
X175429258Y-111637504D01*
X175429256Y-111637515D01*
X175390750Y-111929986D01*
X173652104Y-111929986D01*
X173634652Y-111819799D01*
X173581123Y-111655055D01*
X173502482Y-111500712D01*
X173400664Y-111360572D01*
X173348732Y-111308640D01*
X173315247Y-111247317D01*
X173320231Y-111177625D01*
X173362103Y-111121692D01*
X173427567Y-111097275D01*
X173455811Y-111098486D01*
X173456462Y-111098589D01*
X173456465Y-111098590D01*
X173705288Y-111138000D01*
X173705289Y-111138000D01*
X173957211Y-111138000D01*
X173957212Y-111138000D01*
X174206035Y-111098590D01*
X174445629Y-111020741D01*
X174670095Y-110906370D01*
X174873906Y-110758293D01*
X175052043Y-110580156D01*
X175200120Y-110376345D01*
X175314491Y-110151879D01*
X175392340Y-109912285D01*
X175431750Y-109663462D01*
X175431750Y-109411538D01*
X175392340Y-109162715D01*
X175314491Y-108923121D01*
X175314489Y-108923118D01*
X175314489Y-108923116D01*
X175272997Y-108841684D01*
X175200120Y-108698655D01*
X175098003Y-108558102D01*
X175052048Y-108494850D01*
X175052044Y-108494845D01*
X174873904Y-108316705D01*
X174873899Y-108316701D01*
X174670098Y-108168632D01*
X174670097Y-108168631D01*
X174670095Y-108168630D01*
X174599997Y-108132913D01*
X174445633Y-108054260D01*
X174206035Y-107976410D01*
X173957212Y-107937000D01*
X173705288Y-107937000D01*
X173580876Y-107956705D01*
X173456464Y-107976410D01*
X173216866Y-108054260D01*
X172992401Y-108168632D01*
X172788600Y-108316701D01*
X172788595Y-108316705D01*
X172610455Y-108494845D01*
X172610451Y-108494850D01*
X172462382Y-108698651D01*
X172348010Y-108923116D01*
X172270160Y-109162714D01*
X172230750Y-109411538D01*
X172230750Y-109663461D01*
X172270160Y-109912285D01*
X172348010Y-110151883D01*
X172462382Y-110376348D01*
X172610451Y-110580149D01*
X172610455Y-110580154D01*
X172610457Y-110580156D01*
X172788594Y-110758293D01*
X172788595Y-110758294D01*
X172788594Y-110758294D01*
X172794911Y-110762883D01*
X172837577Y-110818214D01*
X172843555Y-110887827D01*
X172810949Y-110949622D01*
X172750110Y-110983979D01*
X172702628Y-110985674D01*
X172647861Y-110977000D01*
X172474639Y-110977000D01*
X172434978Y-110983281D01*
X172303552Y-111004097D01*
X172138802Y-111057628D01*
X171984461Y-111136268D01*
X171927539Y-111177625D01*
X171844322Y-111238086D01*
X171844320Y-111238088D01*
X171844319Y-111238088D01*
X171721838Y-111360569D01*
X171721838Y-111360570D01*
X171721836Y-111360572D01*
X171678109Y-111420756D01*
X171620018Y-111500711D01*
X171541378Y-111655052D01*
X171487847Y-111819802D01*
X171460750Y-111990889D01*
X164771750Y-111990889D01*
X164744652Y-111819799D01*
X164691123Y-111655055D01*
X164612482Y-111500712D01*
X164510664Y-111360572D01*
X164388178Y-111238086D01*
X164248038Y-111136268D01*
X164093695Y-111057627D01*
X163928951Y-111004098D01*
X163928949Y-111004097D01*
X163928948Y-111004097D01*
X163797521Y-110983281D01*
X163757861Y-110977000D01*
X163584639Y-110977000D01*
X163544978Y-110983281D01*
X163413552Y-111004097D01*
X163248802Y-111057628D01*
X163094461Y-111136268D01*
X163037539Y-111177625D01*
X162954322Y-111238086D01*
X162954320Y-111238088D01*
X162954319Y-111238088D01*
X162831838Y-111360569D01*
X162831838Y-111360570D01*
X162831836Y-111360572D01*
X162788109Y-111420756D01*
X162730018Y-111500711D01*
X162651378Y-111655052D01*
X162597847Y-111819802D01*
X162570750Y-111990889D01*
X160841750Y-111990889D01*
X160841750Y-111929994D01*
X160803243Y-111637507D01*
X160726889Y-111352548D01*
X160613993Y-111079993D01*
X160558559Y-110983979D01*
X160466488Y-110824506D01*
X160286897Y-110590459D01*
X160286891Y-110590452D01*
X160078297Y-110381858D01*
X160078290Y-110381852D01*
X159844243Y-110202261D01*
X159588760Y-110054758D01*
X159588750Y-110054754D01*
X159316211Y-109941864D01*
X159316204Y-109941862D01*
X159316202Y-109941861D01*
X159031243Y-109865507D01*
X158982363Y-109859071D01*
X158738763Y-109827000D01*
X158738756Y-109827000D01*
X158443744Y-109827000D01*
X158443736Y-109827000D01*
X158165335Y-109863653D01*
X158151257Y-109865507D01*
X157976678Y-109912285D01*
X157866298Y-109941861D01*
X157866288Y-109941864D01*
X157593749Y-110054754D01*
X157593739Y-110054758D01*
X157338256Y-110202261D01*
X157104209Y-110381852D01*
X157104202Y-110381858D01*
X156895608Y-110590452D01*
X156895602Y-110590459D01*
X156716011Y-110824506D01*
X156568508Y-111079989D01*
X156568504Y-111079999D01*
X156455614Y-111352538D01*
X156455611Y-111352548D01*
X156379258Y-111637504D01*
X156379256Y-111637515D01*
X156340750Y-111929986D01*
X154602104Y-111929986D01*
X154584652Y-111819799D01*
X154531123Y-111655055D01*
X154452482Y-111500712D01*
X154350664Y-111360572D01*
X154298732Y-111308640D01*
X154265247Y-111247317D01*
X154270231Y-111177625D01*
X154312103Y-111121692D01*
X154377567Y-111097275D01*
X154405811Y-111098486D01*
X154406462Y-111098589D01*
X154406465Y-111098590D01*
X154655288Y-111138000D01*
X154655289Y-111138000D01*
X154907211Y-111138000D01*
X154907212Y-111138000D01*
X155156035Y-111098590D01*
X155395629Y-111020741D01*
X155620095Y-110906370D01*
X155823906Y-110758293D01*
X156002043Y-110580156D01*
X156150120Y-110376345D01*
X156264491Y-110151879D01*
X156342340Y-109912285D01*
X156381750Y-109663462D01*
X156381750Y-109411538D01*
X156342340Y-109162715D01*
X156342339Y-109162711D01*
X156342339Y-109162710D01*
X156283159Y-108980573D01*
X156281164Y-108910732D01*
X156313407Y-108854576D01*
X158296413Y-106871571D01*
X159531250Y-106871571D01*
X159531250Y-107123428D01*
X159570647Y-107372169D01*
X159648469Y-107611684D01*
X159762807Y-107836083D01*
X159836998Y-107938197D01*
X159836998Y-107938198D01*
X160453671Y-107321524D01*
X160466609Y-107352758D01*
X160548687Y-107475597D01*
X160653153Y-107580063D01*
X160775992Y-107662141D01*
X160807224Y-107675077D01*
X160190550Y-108291750D01*
X160292666Y-108365942D01*
X160517065Y-108480280D01*
X160756580Y-108558102D01*
X161005322Y-108597500D01*
X161257178Y-108597500D01*
X161505919Y-108558102D01*
X161745434Y-108480280D01*
X161969825Y-108365946D01*
X161969831Y-108365942D01*
X162071947Y-108291750D01*
X162071948Y-108291750D01*
X161455275Y-107675078D01*
X161486508Y-107662141D01*
X161609347Y-107580063D01*
X161713813Y-107475597D01*
X161795891Y-107352758D01*
X161808828Y-107321525D01*
X162425500Y-107938198D01*
X162425500Y-107938197D01*
X162499692Y-107836081D01*
X162499696Y-107836075D01*
X162614030Y-107611684D01*
X162691852Y-107372169D01*
X162731250Y-107123428D01*
X162731250Y-106871571D01*
X178581250Y-106871571D01*
X178581250Y-107123428D01*
X178620647Y-107372169D01*
X178698469Y-107611684D01*
X178812807Y-107836083D01*
X178886998Y-107938197D01*
X178886998Y-107938198D01*
X179503671Y-107321524D01*
X179516609Y-107352758D01*
X179598687Y-107475597D01*
X179703153Y-107580063D01*
X179825992Y-107662141D01*
X179857224Y-107675077D01*
X179240550Y-108291750D01*
X179342666Y-108365942D01*
X179567065Y-108480280D01*
X179806580Y-108558102D01*
X180055322Y-108597500D01*
X180307178Y-108597500D01*
X180555919Y-108558102D01*
X180795434Y-108480280D01*
X181019825Y-108365946D01*
X181019831Y-108365942D01*
X181121947Y-108291750D01*
X181121948Y-108291750D01*
X180505275Y-107675078D01*
X180536508Y-107662141D01*
X180659347Y-107580063D01*
X180763813Y-107475597D01*
X180845891Y-107352758D01*
X180858828Y-107321525D01*
X181475500Y-107938198D01*
X181475500Y-107938197D01*
X181549692Y-107836081D01*
X181549696Y-107836075D01*
X181664030Y-107611684D01*
X181741852Y-107372169D01*
X181781250Y-107123428D01*
X181781250Y-106871571D01*
X181741852Y-106622830D01*
X181664030Y-106383315D01*
X181549692Y-106158916D01*
X181475500Y-106056801D01*
X181475500Y-106056800D01*
X180858827Y-106673473D01*
X180845891Y-106642242D01*
X180763813Y-106519403D01*
X180659347Y-106414937D01*
X180536508Y-106332859D01*
X180505274Y-106319921D01*
X181121948Y-105703248D01*
X181019833Y-105629057D01*
X180795434Y-105514719D01*
X180555919Y-105436897D01*
X180307178Y-105397500D01*
X180055322Y-105397500D01*
X179806580Y-105436897D01*
X179567065Y-105514719D01*
X179342663Y-105629059D01*
X179240551Y-105703247D01*
X179240550Y-105703248D01*
X179857224Y-106319921D01*
X179825992Y-106332859D01*
X179703153Y-106414937D01*
X179598687Y-106519403D01*
X179516609Y-106642242D01*
X179503671Y-106673474D01*
X178886998Y-106056800D01*
X178886997Y-106056801D01*
X178812809Y-106158913D01*
X178698469Y-106383315D01*
X178620647Y-106622830D01*
X178581250Y-106871571D01*
X162731250Y-106871571D01*
X162691852Y-106622830D01*
X162614030Y-106383315D01*
X162499692Y-106158916D01*
X162425500Y-106056801D01*
X162425500Y-106056800D01*
X161808827Y-106673473D01*
X161795891Y-106642242D01*
X161713813Y-106519403D01*
X161609347Y-106414937D01*
X161486508Y-106332859D01*
X161455274Y-106319921D01*
X162071948Y-105703248D01*
X161969833Y-105629057D01*
X161745434Y-105514719D01*
X161505919Y-105436897D01*
X161257178Y-105397500D01*
X161005322Y-105397500D01*
X160756580Y-105436897D01*
X160517065Y-105514719D01*
X160292663Y-105629059D01*
X160190551Y-105703247D01*
X160190550Y-105703248D01*
X160807224Y-106319921D01*
X160775992Y-106332859D01*
X160653153Y-106414937D01*
X160548687Y-106519403D01*
X160466609Y-106642242D01*
X160453671Y-106673474D01*
X159836998Y-106056800D01*
X159836997Y-106056801D01*
X159762809Y-106158913D01*
X159648469Y-106383315D01*
X159570647Y-106622830D01*
X159531250Y-106871571D01*
X158296413Y-106871571D01*
X165991167Y-99176819D01*
X166052490Y-99143334D01*
X166078848Y-99140500D01*
X174713270Y-99140500D01*
X174780309Y-99160185D01*
X174817191Y-99197866D01*
X174817349Y-99197752D01*
X174818127Y-99198823D01*
X174819000Y-99199715D01*
X174820210Y-99201690D01*
X174820213Y-99201694D01*
X174937019Y-99362464D01*
X175077536Y-99502981D01*
X175238306Y-99619787D01*
X175325149Y-99664035D01*
X175415367Y-99710005D01*
X175415370Y-99710006D01*
X175509866Y-99740709D01*
X175604364Y-99771413D01*
X175800639Y-99802500D01*
X175800640Y-99802500D01*
X175999360Y-99802500D01*
X175999361Y-99802500D01*
X176195636Y-99771413D01*
X176384632Y-99710005D01*
X176561694Y-99619787D01*
X176722464Y-99502981D01*
X176862981Y-99362464D01*
X176979787Y-99201694D01*
X177070005Y-99024632D01*
X177131413Y-98835636D01*
X177162500Y-98639361D01*
X177162500Y-98440639D01*
X177131413Y-98244364D01*
X177100709Y-98149866D01*
X177070006Y-98055370D01*
X177070005Y-98055367D01*
X177010967Y-97939500D01*
X176979787Y-97878306D01*
X176862981Y-97717536D01*
X176722464Y-97577019D01*
X176561694Y-97460213D01*
X176405218Y-97380484D01*
X176354423Y-97332510D01*
X176337628Y-97264689D01*
X176360165Y-97198554D01*
X176405218Y-97159515D01*
X176561694Y-97079787D01*
X176722464Y-96962981D01*
X176862981Y-96822464D01*
X176979787Y-96661694D01*
X177070005Y-96484632D01*
X177131413Y-96295636D01*
X177162500Y-96099361D01*
X177162500Y-95900639D01*
X177131413Y-95704364D01*
X177070005Y-95515368D01*
X177070005Y-95515367D01*
X176979786Y-95338305D01*
X176862981Y-95177536D01*
X176722464Y-95037019D01*
X176561694Y-94920213D01*
X176405218Y-94840484D01*
X176354423Y-94792510D01*
X176337628Y-94724689D01*
X176360165Y-94658554D01*
X176405218Y-94619515D01*
X176561694Y-94539787D01*
X176722464Y-94422981D01*
X176862981Y-94282464D01*
X176979787Y-94121694D01*
X177070005Y-93944632D01*
X177131413Y-93755636D01*
X177162500Y-93559361D01*
X177162500Y-93360639D01*
X177131413Y-93164364D01*
X177070005Y-92975368D01*
X177070005Y-92975367D01*
X176979786Y-92798305D01*
X176862981Y-92637536D01*
X176722464Y-92497019D01*
X176561694Y-92380213D01*
X176405218Y-92300484D01*
X176354423Y-92252510D01*
X176337628Y-92184689D01*
X176360165Y-92118554D01*
X176405218Y-92079515D01*
X176561694Y-91999787D01*
X176722464Y-91882981D01*
X176862981Y-91742464D01*
X176979787Y-91581694D01*
X177070005Y-91404632D01*
X177131413Y-91215636D01*
X177162500Y-91019361D01*
X177162500Y-90820639D01*
X177131413Y-90624364D01*
X177070005Y-90435368D01*
X177070005Y-90435367D01*
X176979786Y-90258305D01*
X176862981Y-90097536D01*
X176722464Y-89957019D01*
X176561694Y-89840213D01*
X176405218Y-89760484D01*
X176354423Y-89712510D01*
X176337628Y-89644689D01*
X176360165Y-89578554D01*
X176405218Y-89539515D01*
X176561694Y-89459787D01*
X176722464Y-89342981D01*
X176862981Y-89202464D01*
X176979787Y-89041694D01*
X177070005Y-88864632D01*
X177131413Y-88675636D01*
X177162500Y-88479361D01*
X177162500Y-88280639D01*
X177131413Y-88084364D01*
X177070005Y-87895368D01*
X177070005Y-87895367D01*
X176979786Y-87718305D01*
X176862981Y-87557536D01*
X176722464Y-87417019D01*
X176561694Y-87300213D01*
X176404667Y-87220203D01*
X176353872Y-87172229D01*
X176337077Y-87104408D01*
X176359614Y-87038273D01*
X176404669Y-86999234D01*
X176561422Y-86919364D01*
X176598716Y-86892268D01*
X175984095Y-86277647D01*
X176071571Y-86254208D01*
X176172930Y-86195689D01*
X176255689Y-86112930D01*
X176314208Y-86011571D01*
X176337647Y-85924094D01*
X176952268Y-86538715D01*
X176979362Y-86501425D01*
X177069542Y-86324437D01*
X177130924Y-86135523D01*
X177130924Y-86135520D01*
X177162000Y-85939321D01*
X177162000Y-85740678D01*
X177130924Y-85544479D01*
X177130924Y-85544476D01*
X177069542Y-85355562D01*
X176979358Y-85178567D01*
X176952268Y-85141283D01*
X176337647Y-85755904D01*
X176314208Y-85668429D01*
X176255689Y-85567070D01*
X176172930Y-85484311D01*
X176071571Y-85425792D01*
X175984094Y-85402352D01*
X176598716Y-84787731D01*
X176598715Y-84787730D01*
X176561432Y-84760641D01*
X176404668Y-84680765D01*
X176353872Y-84632790D01*
X176337077Y-84564969D01*
X176359615Y-84498834D01*
X176404667Y-84459796D01*
X176561694Y-84379787D01*
X176722464Y-84262981D01*
X176862981Y-84122464D01*
X176979787Y-83961694D01*
X177070005Y-83784632D01*
X177131413Y-83595636D01*
X177162500Y-83399361D01*
X177162500Y-83200639D01*
X177131413Y-83004364D01*
X177070005Y-82815368D01*
X177070005Y-82815367D01*
X176979786Y-82638305D01*
X176862981Y-82477536D01*
X176722464Y-82337019D01*
X176561694Y-82220213D01*
X176384632Y-82129994D01*
X176384629Y-82129993D01*
X176195637Y-82068587D01*
X176097498Y-82053043D01*
X175999361Y-82037500D01*
X175800639Y-82037500D01*
X175735214Y-82047862D01*
X175604362Y-82068587D01*
X175415370Y-82129993D01*
X175415367Y-82129994D01*
X175238305Y-82220213D01*
X175077533Y-82337021D01*
X174937021Y-82477533D01*
X174820213Y-82638305D01*
X174729994Y-82815367D01*
X174729993Y-82815370D01*
X174668587Y-83004362D01*
X174637500Y-83200639D01*
X174637500Y-83399360D01*
X174668587Y-83595637D01*
X174729993Y-83784629D01*
X174729994Y-83784632D01*
X174820213Y-83961694D01*
X174937019Y-84122464D01*
X175077536Y-84262981D01*
X175238306Y-84379787D01*
X175395332Y-84459796D01*
X175446127Y-84507769D01*
X175462922Y-84575590D01*
X175440385Y-84641725D01*
X175395332Y-84680764D01*
X175238566Y-84760641D01*
X175201283Y-84787729D01*
X175201282Y-84787730D01*
X175815906Y-85402352D01*
X175728429Y-85425792D01*
X175627070Y-85484311D01*
X175544311Y-85567070D01*
X175485792Y-85668429D01*
X175462352Y-85755905D01*
X174847730Y-85141282D01*
X174847729Y-85141283D01*
X174820643Y-85178564D01*
X174730457Y-85355562D01*
X174669075Y-85544476D01*
X174669075Y-85544479D01*
X174638000Y-85740678D01*
X174638000Y-85939321D01*
X174669075Y-86135520D01*
X174669075Y-86135523D01*
X174730457Y-86324437D01*
X174820641Y-86501432D01*
X174847730Y-86538715D01*
X175462352Y-85924093D01*
X175485792Y-86011571D01*
X175544311Y-86112930D01*
X175627070Y-86195689D01*
X175728429Y-86254208D01*
X175815905Y-86277647D01*
X175201283Y-86892268D01*
X175201283Y-86892269D01*
X175238567Y-86919358D01*
X175395331Y-86999234D01*
X175446127Y-87047209D01*
X175462922Y-87115030D01*
X175440384Y-87181165D01*
X175395331Y-87220204D01*
X175238305Y-87300213D01*
X175077533Y-87417021D01*
X174937021Y-87557533D01*
X174820213Y-87718305D01*
X174729994Y-87895367D01*
X174729993Y-87895370D01*
X174668587Y-88084362D01*
X174637500Y-88280639D01*
X174637500Y-88479360D01*
X174668587Y-88675637D01*
X174729993Y-88864629D01*
X174729994Y-88864632D01*
X174820213Y-89041694D01*
X174937019Y-89202464D01*
X175077536Y-89342981D01*
X175238306Y-89459787D01*
X175356832Y-89520179D01*
X175394780Y-89539515D01*
X175445576Y-89587490D01*
X175462371Y-89655311D01*
X175439833Y-89721446D01*
X175394780Y-89760485D01*
X175238305Y-89840213D01*
X175077533Y-89957021D01*
X174937021Y-90097533D01*
X174820213Y-90258305D01*
X174729994Y-90435367D01*
X174729993Y-90435370D01*
X174668587Y-90624362D01*
X174637500Y-90820639D01*
X174637500Y-91019360D01*
X174668587Y-91215637D01*
X174729993Y-91404629D01*
X174729994Y-91404632D01*
X174820213Y-91581694D01*
X174937019Y-91742464D01*
X175077536Y-91882981D01*
X175238306Y-91999787D01*
X175356832Y-92060179D01*
X175394780Y-92079515D01*
X175445576Y-92127490D01*
X175462371Y-92195311D01*
X175439833Y-92261446D01*
X175394780Y-92300485D01*
X175238305Y-92380213D01*
X175077533Y-92497021D01*
X174937021Y-92637533D01*
X174820213Y-92798305D01*
X174729994Y-92975367D01*
X174729993Y-92975370D01*
X174668587Y-93164362D01*
X174659328Y-93222822D01*
X174629399Y-93285957D01*
X174570087Y-93322888D01*
X174500225Y-93321890D01*
X174441992Y-93283280D01*
X174413878Y-93219317D01*
X174412855Y-93203424D01*
X174412855Y-91545328D01*
X162953703Y-91545328D01*
X162953703Y-94358778D01*
X174412855Y-94358778D01*
X174412855Y-93716575D01*
X174432540Y-93649536D01*
X174485344Y-93603781D01*
X174554502Y-93593837D01*
X174618058Y-93622862D01*
X174655832Y-93681640D01*
X174659328Y-93697177D01*
X174668587Y-93755637D01*
X174729993Y-93944629D01*
X174729994Y-93944632D01*
X174820213Y-94121694D01*
X174937019Y-94282464D01*
X175077536Y-94422981D01*
X175238306Y-94539787D01*
X175356832Y-94600179D01*
X175394780Y-94619515D01*
X175445576Y-94667490D01*
X175462371Y-94735311D01*
X175439833Y-94801446D01*
X175394780Y-94840485D01*
X175238305Y-94920213D01*
X175077533Y-95037021D01*
X174937021Y-95177533D01*
X174820213Y-95338305D01*
X174729994Y-95515367D01*
X174729993Y-95515370D01*
X174668587Y-95704362D01*
X174637500Y-95900639D01*
X174637500Y-96099360D01*
X174668587Y-96295637D01*
X174729993Y-96484629D01*
X174729994Y-96484632D01*
X174820213Y-96661694D01*
X174937019Y-96822464D01*
X175077536Y-96962981D01*
X175238306Y-97079787D01*
X175356832Y-97140179D01*
X175394780Y-97159515D01*
X175445576Y-97207490D01*
X175462371Y-97275311D01*
X175439833Y-97341446D01*
X175394780Y-97380485D01*
X175238305Y-97460213D01*
X175077533Y-97577021D01*
X174937021Y-97717533D01*
X174820210Y-97878309D01*
X174819000Y-97880285D01*
X174818343Y-97880878D01*
X174817349Y-97882248D01*
X174817061Y-97882039D01*
X174767190Y-97927163D01*
X174713270Y-97939500D01*
X165865420Y-97939500D01*
X165865404Y-97939499D01*
X165857808Y-97939499D01*
X165699693Y-97939499D01*
X165623329Y-97959961D01*
X165546964Y-97980423D01*
X165546959Y-97980426D01*
X165410040Y-98059475D01*
X165410032Y-98059481D01*
X155464173Y-108005340D01*
X155402850Y-108038825D01*
X155338174Y-108035590D01*
X155156037Y-107976410D01*
X154990153Y-107950136D01*
X154907212Y-107937000D01*
X154655288Y-107937000D01*
X154530876Y-107956705D01*
X154406464Y-107976410D01*
X154166866Y-108054260D01*
X153942401Y-108168632D01*
X153738600Y-108316701D01*
X153738595Y-108316705D01*
X153560455Y-108494845D01*
X153560451Y-108494850D01*
X153412382Y-108698651D01*
X153298010Y-108923116D01*
X153220160Y-109162714D01*
X153180750Y-109411538D01*
X153180750Y-109663461D01*
X153220160Y-109912285D01*
X153298010Y-110151883D01*
X153412382Y-110376348D01*
X153560451Y-110580149D01*
X153560455Y-110580154D01*
X153560457Y-110580156D01*
X153738594Y-110758293D01*
X153738595Y-110758294D01*
X153738594Y-110758294D01*
X153744911Y-110762883D01*
X153787577Y-110818214D01*
X153793555Y-110887827D01*
X153760949Y-110949622D01*
X153700110Y-110983979D01*
X153652628Y-110985674D01*
X153597861Y-110977000D01*
X153424639Y-110977000D01*
X153384978Y-110983281D01*
X153253552Y-111004097D01*
X153088802Y-111057628D01*
X152934461Y-111136268D01*
X152877539Y-111177625D01*
X152794322Y-111238086D01*
X152794320Y-111238088D01*
X152794319Y-111238088D01*
X152671838Y-111360569D01*
X152671838Y-111360570D01*
X152671836Y-111360572D01*
X152628109Y-111420756D01*
X152570018Y-111500711D01*
X152491378Y-111655052D01*
X152437847Y-111819802D01*
X152410750Y-111990889D01*
X145756750Y-111990889D01*
X145756750Y-83858053D01*
X146284725Y-83858053D01*
X151881439Y-83858053D01*
X151881439Y-83200639D01*
X159397500Y-83200639D01*
X159397500Y-83399360D01*
X159428587Y-83595637D01*
X159489993Y-83784629D01*
X159489994Y-83784632D01*
X159580213Y-83961694D01*
X159697019Y-84122464D01*
X159837536Y-84262981D01*
X159998306Y-84379787D01*
X160116832Y-84440179D01*
X160154780Y-84459515D01*
X160205576Y-84507490D01*
X160222371Y-84575311D01*
X160199833Y-84641446D01*
X160154780Y-84680485D01*
X159998305Y-84760213D01*
X159837533Y-84877021D01*
X159697021Y-85017533D01*
X159580213Y-85178305D01*
X159489994Y-85355367D01*
X159489993Y-85355370D01*
X159428587Y-85544362D01*
X159397500Y-85740639D01*
X159397500Y-85939360D01*
X159428587Y-86135637D01*
X159489993Y-86324629D01*
X159489994Y-86324632D01*
X159580076Y-86501425D01*
X159580213Y-86501694D01*
X159697019Y-86662464D01*
X159837536Y-86802981D01*
X159998306Y-86919787D01*
X160116832Y-86980179D01*
X160154780Y-86999515D01*
X160205576Y-87047490D01*
X160222371Y-87115311D01*
X160199833Y-87181446D01*
X160154780Y-87220485D01*
X159998305Y-87300213D01*
X159837533Y-87417021D01*
X159697021Y-87557533D01*
X159580213Y-87718305D01*
X159489994Y-87895367D01*
X159489993Y-87895370D01*
X159428587Y-88084362D01*
X159397500Y-88280639D01*
X159397500Y-88479360D01*
X159428587Y-88675637D01*
X159489993Y-88864629D01*
X159489994Y-88864632D01*
X159580213Y-89041694D01*
X159697019Y-89202464D01*
X159837536Y-89342981D01*
X159998306Y-89459787D01*
X160116832Y-89520179D01*
X160154780Y-89539515D01*
X160205576Y-89587490D01*
X160222371Y-89655311D01*
X160199833Y-89721446D01*
X160154780Y-89760485D01*
X159998305Y-89840213D01*
X159837533Y-89957021D01*
X159697021Y-90097533D01*
X159580213Y-90258305D01*
X159489994Y-90435367D01*
X159489993Y-90435370D01*
X159428587Y-90624362D01*
X159397500Y-90820639D01*
X159397500Y-91019360D01*
X159428587Y-91215637D01*
X159489993Y-91404629D01*
X159489994Y-91404632D01*
X159580213Y-91581694D01*
X159697019Y-91742464D01*
X159837536Y-91882981D01*
X159998306Y-91999787D01*
X160116832Y-92060179D01*
X160154780Y-92079515D01*
X160205576Y-92127490D01*
X160222371Y-92195311D01*
X160199833Y-92261446D01*
X160154780Y-92300485D01*
X159998305Y-92380213D01*
X159837533Y-92497021D01*
X159697021Y-92637533D01*
X159580213Y-92798305D01*
X159489994Y-92975367D01*
X159489993Y-92975370D01*
X159428587Y-93164362D01*
X159403637Y-93321890D01*
X159397500Y-93360639D01*
X159397500Y-93559361D01*
X159407558Y-93622862D01*
X159428587Y-93755637D01*
X159489993Y-93944629D01*
X159489994Y-93944632D01*
X159580213Y-94121694D01*
X159697019Y-94282464D01*
X159837536Y-94422981D01*
X159998306Y-94539787D01*
X160116832Y-94600179D01*
X160154780Y-94619515D01*
X160205576Y-94667490D01*
X160222371Y-94735311D01*
X160199833Y-94801446D01*
X160154780Y-94840485D01*
X159998305Y-94920213D01*
X159837533Y-95037021D01*
X159697021Y-95177533D01*
X159580213Y-95338305D01*
X159489994Y-95515367D01*
X159489993Y-95515370D01*
X159428587Y-95704362D01*
X159397500Y-95900639D01*
X159397500Y-96099360D01*
X159428587Y-96295637D01*
X159489993Y-96484629D01*
X159489994Y-96484632D01*
X159580213Y-96661694D01*
X159697019Y-96822464D01*
X159837536Y-96962981D01*
X159998306Y-97079787D01*
X160116832Y-97140179D01*
X160154780Y-97159515D01*
X160205576Y-97207490D01*
X160222371Y-97275311D01*
X160199833Y-97341446D01*
X160154780Y-97380485D01*
X159998305Y-97460213D01*
X159837533Y-97577021D01*
X159697021Y-97717533D01*
X159580213Y-97878305D01*
X159489994Y-98055367D01*
X159489993Y-98055370D01*
X159428587Y-98244362D01*
X159397500Y-98440639D01*
X159397500Y-98639360D01*
X159428587Y-98835637D01*
X159489993Y-99024629D01*
X159489994Y-99024632D01*
X159549033Y-99140500D01*
X159580213Y-99201694D01*
X159697019Y-99362464D01*
X159837536Y-99502981D01*
X159998306Y-99619787D01*
X160085149Y-99664035D01*
X160175367Y-99710005D01*
X160175370Y-99710006D01*
X160269866Y-99740709D01*
X160364364Y-99771413D01*
X160560639Y-99802500D01*
X160560640Y-99802500D01*
X160759360Y-99802500D01*
X160759361Y-99802500D01*
X160955636Y-99771413D01*
X161144632Y-99710005D01*
X161321694Y-99619787D01*
X161482464Y-99502981D01*
X161622981Y-99362464D01*
X161739787Y-99201694D01*
X161830005Y-99024632D01*
X161891413Y-98835636D01*
X161922500Y-98639361D01*
X161922500Y-98440639D01*
X161891413Y-98244364D01*
X161860709Y-98149866D01*
X161830006Y-98055370D01*
X161830005Y-98055367D01*
X161770967Y-97939500D01*
X161739787Y-97878306D01*
X161622981Y-97717536D01*
X161482464Y-97577019D01*
X161321694Y-97460213D01*
X161165218Y-97380484D01*
X161114423Y-97332510D01*
X161097628Y-97264689D01*
X161120165Y-97198554D01*
X161165218Y-97159515D01*
X161321694Y-97079787D01*
X161482464Y-96962981D01*
X161622981Y-96822464D01*
X161739787Y-96661694D01*
X161830005Y-96484632D01*
X161891413Y-96295636D01*
X161922500Y-96099361D01*
X161922500Y-95900639D01*
X161891413Y-95704364D01*
X161830005Y-95515368D01*
X161830005Y-95515367D01*
X161739786Y-95338305D01*
X161622981Y-95177536D01*
X161482464Y-95037019D01*
X161321694Y-94920213D01*
X161165218Y-94840484D01*
X161114423Y-94792510D01*
X161097628Y-94724689D01*
X161120165Y-94658554D01*
X161165218Y-94619515D01*
X161321694Y-94539787D01*
X161482464Y-94422981D01*
X161622981Y-94282464D01*
X161739787Y-94121694D01*
X161830005Y-93944632D01*
X161891413Y-93755636D01*
X161922500Y-93559361D01*
X161922500Y-93360639D01*
X161891413Y-93164364D01*
X161830005Y-92975368D01*
X161830005Y-92975367D01*
X161739786Y-92798305D01*
X161622981Y-92637536D01*
X161482464Y-92497019D01*
X161321694Y-92380213D01*
X161165218Y-92300484D01*
X161114423Y-92252510D01*
X161097628Y-92184689D01*
X161120165Y-92118554D01*
X161165218Y-92079515D01*
X161321694Y-91999787D01*
X161482464Y-91882981D01*
X161622981Y-91742464D01*
X161739787Y-91581694D01*
X161830005Y-91404632D01*
X161891413Y-91215636D01*
X161922500Y-91019361D01*
X161922500Y-90820639D01*
X161891413Y-90624364D01*
X161830005Y-90435368D01*
X161830005Y-90435367D01*
X161739786Y-90258305D01*
X161622981Y-90097536D01*
X161482464Y-89957019D01*
X161321694Y-89840213D01*
X161165218Y-89760484D01*
X161114423Y-89712510D01*
X161097628Y-89644689D01*
X161120165Y-89578554D01*
X161165218Y-89539515D01*
X161321694Y-89459787D01*
X161482464Y-89342981D01*
X161622981Y-89202464D01*
X161739787Y-89041694D01*
X161830005Y-88864632D01*
X161891413Y-88675636D01*
X161922500Y-88479361D01*
X161922500Y-88280639D01*
X161891413Y-88084364D01*
X161830005Y-87895368D01*
X161830005Y-87895367D01*
X161739786Y-87718305D01*
X161622981Y-87557536D01*
X161482464Y-87417019D01*
X161321694Y-87300213D01*
X161165218Y-87220484D01*
X161114423Y-87172510D01*
X161097628Y-87104689D01*
X161120165Y-87038554D01*
X161165218Y-86999515D01*
X161321694Y-86919787D01*
X161482464Y-86802981D01*
X161622981Y-86662464D01*
X161739787Y-86501694D01*
X161830005Y-86324632D01*
X161891413Y-86135636D01*
X161922500Y-85939361D01*
X161922500Y-85740639D01*
X161891413Y-85544364D01*
X161830005Y-85355368D01*
X161830005Y-85355367D01*
X161784035Y-85265149D01*
X161739787Y-85178306D01*
X161622981Y-85017536D01*
X161482464Y-84877019D01*
X161321694Y-84760213D01*
X161165218Y-84680484D01*
X161114423Y-84632510D01*
X161097628Y-84564689D01*
X161120165Y-84498554D01*
X161165218Y-84459515D01*
X161321694Y-84379787D01*
X161482464Y-84262981D01*
X161622981Y-84122464D01*
X161739787Y-83961694D01*
X161830005Y-83784632D01*
X161891413Y-83595636D01*
X161922500Y-83399361D01*
X161922500Y-83200639D01*
X161891413Y-83004364D01*
X161830005Y-82815368D01*
X161830005Y-82815367D01*
X161739786Y-82638305D01*
X161622981Y-82477536D01*
X161482464Y-82337019D01*
X161321694Y-82220213D01*
X161144632Y-82129994D01*
X161144629Y-82129993D01*
X160955637Y-82068587D01*
X160857498Y-82053043D01*
X160759361Y-82037500D01*
X160560639Y-82037500D01*
X160495214Y-82047862D01*
X160364362Y-82068587D01*
X160175370Y-82129993D01*
X160175367Y-82129994D01*
X159998305Y-82220213D01*
X159837533Y-82337021D01*
X159697021Y-82477533D01*
X159580213Y-82638305D01*
X159489994Y-82815367D01*
X159489993Y-82815370D01*
X159428587Y-83004362D01*
X159397500Y-83200639D01*
X151881439Y-83200639D01*
X151881439Y-81043603D01*
X146284725Y-81043603D01*
X146284725Y-83858053D01*
X145756750Y-83858053D01*
X145756750Y-80546750D01*
X145776435Y-80479711D01*
X145829239Y-80433956D01*
X145880750Y-80422750D01*
X189875500Y-80422750D01*
X189942539Y-80442435D01*
G37*
%TD.AperFunction*%
%TD*%
M02*
