%TF.GenerationSoftware,KiCad,Pcbnew,9.0.6*%
%TF.CreationDate,2025-12-25T21:37:21-05:00*%
%TF.ProjectId,hpad,68706164-2e6b-4696-9361-645f70636258,rev?*%
%TF.SameCoordinates,Original*%
%TF.FileFunction,Soldermask,Top*%
%TF.FilePolarity,Negative*%
%FSLAX46Y46*%
G04 Gerber Fmt 4.6, Leading zero omitted, Abs format (unit mm)*
G04 Created by KiCad (PCBNEW 9.0.6) date 2025-12-25 21:37:21*
%MOMM*%
%LPD*%
G01*
G04 APERTURE LIST*
G04 Aperture macros list*
%AMRoundRect*
0 Rectangle with rounded corners*
0 $1 Rounding radius*
0 $2 $3 $4 $5 $6 $7 $8 $9 X,Y pos of 4 corners*
0 Add a 4 corners polygon primitive as box body*
4,1,4,$2,$3,$4,$5,$6,$7,$8,$9,$2,$3,0*
0 Add four circle primitives for the rounded corners*
1,1,$1+$1,$2,$3*
1,1,$1+$1,$4,$5*
1,1,$1+$1,$6,$7*
1,1,$1+$1,$8,$9*
0 Add four rect primitives between the rounded corners*
20,1,$1+$1,$2,$3,$4,$5,0*
20,1,$1+$1,$4,$5,$6,$7,0*
20,1,$1+$1,$6,$7,$8,$9,0*
20,1,$1+$1,$8,$9,$2,$3,0*%
G04 Aperture macros list end*
%ADD10RoundRect,0.152400X1.063600X0.609600X-1.063600X0.609600X-1.063600X-0.609600X1.063600X-0.609600X0*%
%ADD11C,1.524000*%
%ADD12RoundRect,0.152400X-1.063600X-0.609600X1.063600X-0.609600X1.063600X0.609600X-1.063600X0.609600X0*%
%ADD13C,1.700000*%
%ADD14C,4.000000*%
%ADD15C,2.200000*%
%ADD16R,1.600000X0.850000*%
G04 APERTURE END LIST*
D10*
%TO.C,U1*%
X159825000Y-83300000D03*
D11*
X160660000Y-83300000D03*
D10*
X159825000Y-85840000D03*
D11*
X160660000Y-85840000D03*
D10*
X159825000Y-88380000D03*
D11*
X160660000Y-88380000D03*
D10*
X159825000Y-90920000D03*
D11*
X160660000Y-90920000D03*
D10*
X159825000Y-93460000D03*
D11*
X160660000Y-93460000D03*
D10*
X159825000Y-96000000D03*
D11*
X160660000Y-96000000D03*
D10*
X159825000Y-98540000D03*
D11*
X160660000Y-98540000D03*
X175900000Y-98540000D03*
D12*
X176735000Y-98540000D03*
D11*
X175900000Y-96000000D03*
D12*
X176735000Y-96000000D03*
D11*
X175900000Y-93460000D03*
D12*
X176735000Y-93460000D03*
D11*
X175900000Y-90920000D03*
D12*
X176735000Y-90920000D03*
D11*
X175900000Y-88380000D03*
D12*
X176735000Y-88380000D03*
D11*
X175900000Y-85840000D03*
D12*
X176735000Y-85840000D03*
D11*
X175900000Y-83300000D03*
D12*
X176735000Y-83300000D03*
%TD*%
D13*
%TO.C,SW1*%
X153511250Y-112077500D03*
D14*
X158591250Y-112077500D03*
D13*
X163671250Y-112077500D03*
D15*
X161131250Y-106997500D03*
X154781250Y-109537500D03*
%TD*%
D16*
%TO.C,D1*%
X152200000Y-89150000D03*
X152200000Y-90900000D03*
X155700000Y-90900000D03*
X155700000Y-89150000D03*
%TD*%
D13*
%TO.C,SW3*%
X153511250Y-131127500D03*
D14*
X158591250Y-131127500D03*
D13*
X163671250Y-131127500D03*
D15*
X161131250Y-126047500D03*
X154781250Y-128587500D03*
%TD*%
D16*
%TO.C,D2*%
X181150000Y-89650000D03*
X181150000Y-91400000D03*
X184650000Y-91400000D03*
X184650000Y-89650000D03*
%TD*%
D13*
%TO.C,SW4*%
X172561250Y-131127500D03*
D14*
X177641250Y-131127500D03*
D13*
X182721250Y-131127500D03*
D15*
X180181250Y-126047500D03*
X173831250Y-128587500D03*
%TD*%
D13*
%TO.C,SW2*%
X172561250Y-112077500D03*
D14*
X177641250Y-112077500D03*
D13*
X182721250Y-112077500D03*
D15*
X180181250Y-106997500D03*
X173831250Y-109537500D03*
%TD*%
M02*
